<svg width="52" height="52" viewBox="0 0 52 52" fill="none" xmlns="http://www.w3.org/2000/svg">
<g clip-path="url(#clip0_14_10)">
<path fill-rule="evenodd" clip-rule="evenodd" d="M51.6035 44.3857C47.791 47.671 43.0194 50.0184 37.7867 51.1829C35.3708 51.714 32.838 52 30.2293 52C25.9094 52.0028 21.6396 51.2087 17.7096 49.6715C13.7796 48.1344 10.2817 45.89 7.45338 43.0913C2.63621 38.3558 -0.0121917 32.2827 4.21958e-05 26C4.21958e-05 19.4573 2.81238 13.4791 7.45338 8.90872C10.2817 6.10993 13.7796 3.86572 17.7096 2.32852C21.6396 0.791321 25.9094 -0.00283138 30.2293 7.58482e-06C32.838 7.58482e-06 35.3708 0.286007 37.7867 0.81715C43.0194 1.9815 47.791 4.32896 51.6035 7.61429L40.9153 16.8071C39.5157 15.5992 37.8508 14.6409 36.0167 13.9874C34.1826 13.334 32.2155 12.9984 30.2293 13C21.8833 13 15.1147 18.8203 15.1147 26L15.119 26.3343C15.327 33.3617 22.0133 39 30.2293 39C34.4023 39 38.181 37.544 40.9153 35.1929L51.6035 44.3857Z" fill="#0B7BFF"/>
<path fill-rule="evenodd" clip-rule="evenodd" d="M40.9154 16.8071C39.5157 15.5992 37.8508 14.6409 36.0167 13.9874C34.1826 13.334 32.2157 12.9984 30.2293 13C21.8833 13 15.1147 18.8203 15.1147 26C15.1084 22.5869 15.8872 19.2062 17.4067 16.0514C18.9262 12.8966 21.1564 10.0296 23.9698 7.61428C27.7823 4.32895 32.5542 1.98149 37.7867 0.817139L40.9154 16.8071Z" fill="url(#paint0_linear_14_10)"/>
</g>
<defs>
<linearGradient id="paint0_linear_14_10" x1="40.0833" y1="7.58333" x2="15.1667" y2="13" gradientUnits="userSpaceOnUse">
<stop stop-color="#0E7DFF" stop-opacity="0.911017"/>
<stop offset="0.0001" stop-color="#0074FC" stop-opacity="0.65"/>
<stop offset="0.734375" stop-color="white"/>
</linearGradient>
<clipPath id="clip0_14_10">
<rect width="52" height="52" fill="white"/>
</clipPath>
</defs>
</svg>
