<svg width="26" height="26" viewBox="0 0 26 26" fill="none" xmlns="http://www.w3.org/2000/svg">
<path d="M11.2667 2.60001C6.49047 2.60001 2.60001 6.49047 2.60001 11.2667C2.60001 16.0429 6.49047 19.9333 11.2667 19.9333C13.3436 19.9333 15.2511 19.1958 16.746 17.9715L21.9206 23.1461C22.0004 23.2293 22.0961 23.2957 22.2019 23.3414C22.3078 23.3872 22.4217 23.4113 22.537 23.4125C22.6523 23.4137 22.7667 23.3918 22.8734 23.3483C22.9802 23.3047 23.0772 23.2402 23.1587 23.1587C23.2402 23.0772 23.3047 22.9802 23.3483 22.8734C23.3918 22.7667 23.4137 22.6523 23.4125 22.537C23.4114 22.4217 23.3872 22.3078 23.3414 22.2019C23.2957 22.0961 23.2293 22.0004 23.1461 21.9206L17.9715 16.746C19.1958 15.2511 19.9333 13.3436 19.9333 11.2667C19.9333 6.49047 16.0429 2.60001 11.2667 2.60001ZM11.2667 4.33334C15.1061 4.33334 18.2 7.42723 18.2 11.2667C18.2 15.1061 15.1061 18.2 11.2667 18.2C7.42723 18.2 4.33334 15.1061 4.33334 11.2667C4.33334 7.42723 7.42723 4.33334 11.2667 4.33334Z" fill="#8A8A8A"/>
</svg>
