<svg width="366" height="125" viewBox="0 0 366 125" fill="none" xmlns="http://www.w3.org/2000/svg">
<path d="M18.23 102.348H20.5737C20.4517 103.471 20.1302 104.476 19.6094 105.363C19.0885 106.25 18.3521 106.954 17.3999 107.475C16.4478 107.988 15.2596 108.244 13.8354 108.244C12.7938 108.244 11.8457 108.049 10.9912 107.658C10.1449 107.268 9.4165 106.714 8.80615 105.998C8.1958 105.274 7.7238 104.407 7.39014 103.398C7.06462 102.381 6.90186 101.25 6.90186 100.004V98.2344C6.90186 96.9893 7.06462 95.8621 7.39014 94.853C7.7238 93.8358 8.19987 92.965 8.81836 92.2407C9.44499 91.5164 10.1978 90.959 11.0767 90.5684C11.9556 90.1777 12.9443 89.9824 14.043 89.9824C15.3857 89.9824 16.521 90.2347 17.4487 90.7393C18.3765 91.2438 19.0967 91.9437 19.6094 92.8389C20.1302 93.7259 20.4517 94.7554 20.5737 95.9272H18.23C18.116 95.0972 17.9045 94.3851 17.5952 93.791C17.286 93.1888 16.8465 92.7249 16.2769 92.3994C15.7072 92.0739 14.9626 91.9111 14.043 91.9111C13.2536 91.9111 12.5578 92.0617 11.9556 92.3628C11.3615 92.6639 10.861 93.0911 10.4541 93.6445C10.0553 94.1979 9.75423 94.8612 9.55078 95.6343C9.34733 96.4074 9.24561 97.266 9.24561 98.21V100.004C9.24561 100.875 9.33512 101.693 9.51416 102.458C9.70133 103.223 9.9821 103.894 10.3564 104.472C10.7308 105.05 11.2069 105.506 11.7847 105.839C12.3625 106.165 13.0461 106.328 13.8354 106.328C14.8364 106.328 15.634 106.169 16.228 105.852C16.8221 105.534 17.2697 105.078 17.5708 104.484C17.88 103.89 18.0998 103.178 18.23 102.348ZM22.8442 101.542V101.262C22.8442 100.31 22.9826 99.4266 23.2593 98.6128C23.536 97.7909 23.9347 97.0788 24.4556 96.4766C24.9764 95.8662 25.6071 95.3942 26.3477 95.0605C27.0882 94.7188 27.9183 94.5479 28.8379 94.5479C29.7656 94.5479 30.5998 94.7188 31.3403 95.0605C32.089 95.3942 32.7238 95.8662 33.2446 96.4766C33.7736 97.0788 34.1764 97.7909 34.4531 98.6128C34.7298 99.4266 34.8682 100.31 34.8682 101.262V101.542C34.8682 102.495 34.7298 103.378 34.4531 104.191C34.1764 105.005 33.7736 105.717 33.2446 106.328C32.7238 106.93 32.0931 107.402 31.3525 107.744C30.6201 108.077 29.79 108.244 28.8623 108.244C27.9346 108.244 27.1004 108.077 26.3599 107.744C25.6193 107.402 24.9845 106.93 24.4556 106.328C23.9347 105.717 23.536 105.005 23.2593 104.191C22.9826 103.378 22.8442 102.495 22.8442 101.542ZM25.1025 101.262V101.542C25.1025 102.202 25.1799 102.824 25.3345 103.41C25.4891 103.988 25.721 104.501 26.0303 104.948C26.3477 105.396 26.7424 105.75 27.2144 106.01C27.6864 106.263 28.2357 106.389 28.8623 106.389C29.4808 106.389 30.022 106.263 30.4858 106.01C30.9578 105.75 31.3485 105.396 31.6577 104.948C31.967 104.501 32.1989 103.988 32.3535 103.41C32.5163 102.824 32.5977 102.202 32.5977 101.542V101.262C32.5977 100.611 32.5163 99.9963 32.3535 99.4185C32.1989 98.8325 31.9629 98.3158 31.6455 97.8682C31.3363 97.4124 30.9456 97.0544 30.4736 96.7939C30.0098 96.5335 29.4645 96.4033 28.8379 96.4033C28.2194 96.4033 27.6742 96.5335 27.2021 96.7939C26.7383 97.0544 26.3477 97.4124 26.0303 97.8682C25.721 98.3158 25.4891 98.8325 25.3345 99.4185C25.1799 99.9963 25.1025 100.611 25.1025 101.262ZM39.9463 97.4165V108H37.6758V94.792H39.8242L39.9463 97.4165ZM39.4824 100.896L38.4326 100.859C38.4408 99.9556 38.5588 99.1214 38.7866 98.3564C39.0145 97.5833 39.3522 96.9119 39.7998 96.3423C40.2474 95.7726 40.8049 95.3332 41.4722 95.0239C42.1395 94.7065 42.9126 94.5479 43.7915 94.5479C44.41 94.5479 44.9797 94.6374 45.5005 94.8164C46.0213 94.9873 46.473 95.2599 46.8555 95.6343C47.238 96.0086 47.535 96.4888 47.7466 97.0747C47.9582 97.6606 48.064 98.3687 48.064 99.1987V108H45.8057V99.3086C45.8057 98.6169 45.6877 98.0635 45.4517 97.6484C45.2238 97.2334 44.8983 96.9323 44.4751 96.7451C44.0519 96.5498 43.5555 96.4521 42.9858 96.4521C42.3185 96.4521 41.7611 96.5701 41.3135 96.8062C40.8659 97.0422 40.5078 97.3677 40.2393 97.7827C39.9707 98.1978 39.7754 98.6738 39.6533 99.2109C39.5394 99.7399 39.4824 100.301 39.4824 100.896ZM48.0396 99.6504L46.5259 100.114C46.534 99.39 46.652 98.6942 46.8799 98.0269C47.1159 97.3595 47.4536 96.7655 47.8931 96.2446C48.3407 95.7238 48.89 95.3128 49.541 95.0117C50.1921 94.7025 50.9367 94.5479 51.7749 94.5479C52.4829 94.5479 53.1095 94.6414 53.6548 94.8286C54.2082 95.0158 54.672 95.3047 55.0464 95.6953C55.4289 96.0778 55.7178 96.5701 55.9131 97.1724C56.1084 97.7746 56.2061 98.4907 56.2061 99.3208V108H53.9355V99.2964C53.9355 98.5558 53.8175 97.9821 53.5815 97.5752C53.3537 97.1602 53.0282 96.8713 52.605 96.7085C52.1899 96.5376 51.6935 96.4521 51.1157 96.4521C50.6193 96.4521 50.1799 96.5376 49.7974 96.7085C49.4149 96.8794 49.0934 97.1154 48.833 97.4165C48.5726 97.7095 48.3732 98.0472 48.2349 98.4297C48.1047 98.8122 48.0396 99.2191 48.0396 99.6504ZM61.8823 97.3311V113.078H59.6118V94.792H61.687L61.8823 97.3311ZM70.7812 101.286V101.542C70.7812 102.503 70.6673 103.394 70.4395 104.216C70.2116 105.03 69.8779 105.738 69.4385 106.34C69.0072 106.942 68.4741 107.41 67.8394 107.744C67.2046 108.077 66.4762 108.244 65.6543 108.244C64.8161 108.244 64.0755 108.106 63.4326 107.829C62.7897 107.552 62.2445 107.15 61.7969 106.621C61.3493 106.092 60.9912 105.457 60.7227 104.716C60.4622 103.976 60.2832 103.142 60.1855 102.214V100.847C60.2832 99.8701 60.4663 98.9953 60.7349 98.2222C61.0034 97.4491 61.3574 96.7899 61.7969 96.2446C62.2445 95.6912 62.7856 95.2721 63.4204 94.9873C64.0552 94.6943 64.7876 94.5479 65.6177 94.5479C66.4478 94.5479 67.1842 94.7106 67.8271 95.0361C68.4701 95.3535 69.0112 95.8092 69.4507 96.4033C69.8901 96.9974 70.2197 97.7095 70.4395 98.5396C70.6673 99.3615 70.7812 100.277 70.7812 101.286ZM68.5107 101.542V101.286C68.5107 100.627 68.4416 100.008 68.3032 99.4307C68.1649 98.8447 67.9492 98.332 67.6562 97.8926C67.3714 97.445 67.0052 97.0951 66.5576 96.8428C66.11 96.5824 65.577 96.4521 64.9585 96.4521C64.3888 96.4521 63.8924 96.5498 63.4692 96.7451C63.0542 96.9404 62.7002 97.2049 62.4072 97.5386C62.1143 97.8641 61.8742 98.2384 61.687 98.6616C61.508 99.0767 61.3737 99.508 61.2842 99.9556V103.117C61.4469 103.687 61.6748 104.224 61.9678 104.729C62.2607 105.225 62.6514 105.628 63.1396 105.937C63.6279 106.238 64.2424 106.389 64.9829 106.389C65.5933 106.389 66.1182 106.263 66.5576 106.01C67.0052 105.75 67.3714 105.396 67.6562 104.948C67.9492 104.501 68.1649 103.988 68.3032 103.41C68.4416 102.824 68.5107 102.202 68.5107 101.542ZM76.1157 89.25V108H73.8452V89.25H76.1157ZM85.2222 108.244C84.3026 108.244 83.4684 108.09 82.7197 107.78C81.9792 107.463 81.3403 107.019 80.8032 106.45C80.2743 105.88 79.8674 105.205 79.5825 104.423C79.2977 103.642 79.1553 102.788 79.1553 101.86V101.347C79.1553 100.273 79.314 99.3167 79.6313 98.4785C79.9487 97.6322 80.38 96.916 80.9253 96.3301C81.4705 95.7441 82.089 95.3006 82.7808 94.9995C83.4725 94.6984 84.1886 94.5479 84.9292 94.5479C85.8732 94.5479 86.687 94.7106 87.3706 95.0361C88.0623 95.3617 88.6279 95.8174 89.0674 96.4033C89.5068 96.9811 89.8324 97.6647 90.0439 98.4541C90.2555 99.2354 90.3613 100.09 90.3613 101.018V102.031H80.498V100.188H88.103V100.017C88.0705 99.4307 87.9484 98.861 87.7368 98.3076C87.5334 97.7542 87.2078 97.2985 86.7603 96.9404C86.3127 96.5824 85.7023 96.4033 84.9292 96.4033C84.4165 96.4033 83.9445 96.5132 83.5132 96.7329C83.0819 96.9445 82.7116 97.2619 82.4023 97.6851C82.0931 98.1082 81.853 98.625 81.6821 99.2354C81.5112 99.8457 81.4258 100.55 81.4258 101.347V101.86C81.4258 102.486 81.5112 103.076 81.6821 103.63C81.8612 104.175 82.1175 104.655 82.4512 105.07C82.793 105.485 83.2039 105.811 83.6841 106.047C84.1724 106.283 84.7257 106.401 85.3442 106.401C86.1418 106.401 86.8172 106.238 87.3706 105.913C87.924 105.587 88.4082 105.152 88.8232 104.606L90.1904 105.693C89.9056 106.124 89.5435 106.535 89.104 106.926C88.6646 107.316 88.1234 107.634 87.4805 107.878C86.8457 108.122 86.0929 108.244 85.2222 108.244ZM98.5278 94.792V96.5254H91.3867V94.792H98.5278ZM93.8037 91.5815H96.062V104.729C96.062 105.176 96.1312 105.514 96.2695 105.742C96.4079 105.97 96.5869 106.12 96.8066 106.193C97.0264 106.267 97.2624 106.303 97.5146 106.303C97.7018 106.303 97.8971 106.287 98.1006 106.254C98.3122 106.214 98.4709 106.181 98.5767 106.157L98.5889 108C98.4098 108.057 98.1738 108.11 97.8809 108.159C97.596 108.216 97.2502 108.244 96.8433 108.244C96.2899 108.244 95.7812 108.134 95.3174 107.915C94.8535 107.695 94.4832 107.329 94.2065 106.816C93.938 106.295 93.8037 105.595 93.8037 104.716V91.5815ZM106.658 108.244C105.738 108.244 104.904 108.09 104.155 107.78C103.415 107.463 102.776 107.019 102.239 106.45C101.71 105.88 101.303 105.205 101.018 104.423C100.733 103.642 100.591 102.788 100.591 101.86V101.347C100.591 100.273 100.75 99.3167 101.067 98.4785C101.384 97.6322 101.816 96.916 102.361 96.3301C102.906 95.7441 103.525 95.3006 104.216 94.9995C104.908 94.6984 105.624 94.5479 106.365 94.5479C107.309 94.5479 108.123 94.7106 108.806 95.0361C109.498 95.3617 110.063 95.8174 110.503 96.4033C110.942 96.9811 111.268 97.6647 111.479 98.4541C111.691 99.2354 111.797 100.09 111.797 101.018V102.031H101.934V100.188H109.539V100.017C109.506 99.4307 109.384 98.861 109.172 98.3076C108.969 97.7542 108.643 97.2985 108.196 96.9404C107.748 96.5824 107.138 96.4033 106.365 96.4033C105.852 96.4033 105.38 96.5132 104.949 96.7329C104.517 96.9445 104.147 97.2619 103.838 97.6851C103.529 98.1082 103.289 98.625 103.118 99.2354C102.947 99.8457 102.861 100.55 102.861 101.347V101.86C102.861 102.486 102.947 103.076 103.118 103.63C103.297 104.175 103.553 104.655 103.887 105.07C104.229 105.485 104.639 105.811 105.12 106.047C105.608 106.283 106.161 106.401 106.78 106.401C107.577 106.401 108.253 106.238 108.806 105.913C109.36 105.587 109.844 105.152 110.259 104.606L111.626 105.693C111.341 106.124 110.979 106.535 110.54 106.926C110.1 107.316 109.559 107.634 108.916 107.878C108.281 108.122 107.528 108.244 106.658 108.244ZM116.887 89.25V108H114.617V89.25H116.887ZM124.224 106.633L127.898 94.792H130.315L125.017 110.039C124.895 110.364 124.732 110.714 124.529 111.088C124.333 111.471 124.081 111.833 123.772 112.175C123.463 112.517 123.088 112.793 122.649 113.005C122.218 113.225 121.701 113.334 121.099 113.334C120.92 113.334 120.692 113.31 120.415 113.261C120.138 113.212 119.943 113.172 119.829 113.139L119.817 111.308C119.882 111.316 119.984 111.324 120.122 111.333C120.269 111.349 120.37 111.357 120.427 111.357C120.94 111.357 121.375 111.288 121.733 111.149C122.091 111.019 122.393 110.795 122.637 110.478C122.889 110.169 123.105 109.742 123.284 109.196L124.224 106.633ZM121.526 94.792L124.956 105.046L125.542 107.426L123.918 108.256L119.06 94.792H121.526ZM152.581 98.5518V99.6748C152.581 101.009 152.414 102.206 152.08 103.264C151.746 104.322 151.266 105.221 150.64 105.961C150.013 106.702 149.26 107.268 148.381 107.658C147.511 108.049 146.534 108.244 145.452 108.244C144.402 108.244 143.438 108.049 142.559 107.658C141.688 107.268 140.931 106.702 140.288 105.961C139.653 105.221 139.161 104.322 138.811 103.264C138.461 102.206 138.286 101.009 138.286 99.6748V98.5518C138.286 97.2171 138.457 96.0249 138.799 94.9751C139.149 93.9172 139.641 93.0179 140.276 92.2773C140.911 91.5286 141.663 90.959 142.534 90.5684C143.413 90.1777 144.377 89.9824 145.427 89.9824C146.51 89.9824 147.486 90.1777 148.357 90.5684C149.236 90.959 149.989 91.5286 150.615 92.2773C151.25 93.0179 151.734 93.9172 152.068 94.9751C152.41 96.0249 152.581 97.2171 152.581 98.5518ZM150.249 99.6748V98.5273C150.249 97.4694 150.139 96.5335 149.919 95.7197C149.708 94.9059 149.395 94.2223 148.979 93.6689C148.564 93.1156 148.056 92.6965 147.454 92.4116C146.86 92.1268 146.184 91.9844 145.427 91.9844C144.695 91.9844 144.032 92.1268 143.438 92.4116C142.852 92.6965 142.347 93.1156 141.924 93.6689C141.509 94.2223 141.187 94.9059 140.959 95.7197C140.732 96.5335 140.618 97.4694 140.618 98.5273V99.6748C140.618 100.741 140.732 101.685 140.959 102.507C141.187 103.321 141.513 104.008 141.936 104.57C142.367 105.123 142.876 105.542 143.462 105.827C144.056 106.112 144.719 106.254 145.452 106.254C146.217 106.254 146.896 106.112 147.49 105.827C148.084 105.542 148.585 105.123 148.992 104.57C149.407 104.008 149.72 103.321 149.932 102.507C150.143 101.685 150.249 100.741 150.249 99.6748ZM158.025 97.3311V113.078H155.754V94.792H157.83L158.025 97.3311ZM166.924 101.286V101.542C166.924 102.503 166.81 103.394 166.582 104.216C166.354 105.03 166.021 105.738 165.581 106.34C165.15 106.942 164.617 107.41 163.982 107.744C163.347 108.077 162.619 108.244 161.797 108.244C160.959 108.244 160.218 108.106 159.575 107.829C158.932 107.552 158.387 107.15 157.939 106.621C157.492 106.092 157.134 105.457 156.865 104.716C156.605 103.976 156.426 103.142 156.328 102.214V100.847C156.426 99.8701 156.609 98.9953 156.877 98.2222C157.146 97.4491 157.5 96.7899 157.939 96.2446C158.387 95.6912 158.928 95.2721 159.563 94.9873C160.198 94.6943 160.93 94.5479 161.76 94.5479C162.59 94.5479 163.327 94.7106 163.97 95.0361C164.613 95.3535 165.154 95.8092 165.593 96.4033C166.033 96.9974 166.362 97.7095 166.582 98.5396C166.81 99.3615 166.924 100.277 166.924 101.286ZM164.653 101.542V101.286C164.653 100.627 164.584 100.008 164.446 99.4307C164.307 98.8447 164.092 98.332 163.799 97.8926C163.514 97.445 163.148 97.0951 162.7 96.8428C162.253 96.5824 161.72 96.4521 161.101 96.4521C160.531 96.4521 160.035 96.5498 159.612 96.7451C159.197 96.9404 158.843 97.2049 158.55 97.5386C158.257 97.8641 158.017 98.2384 157.83 98.6616C157.651 99.0767 157.516 99.508 157.427 99.9556V103.117C157.59 103.687 157.817 104.224 158.11 104.729C158.403 105.225 158.794 105.628 159.282 105.937C159.771 106.238 160.385 106.389 161.125 106.389C161.736 106.389 162.261 106.263 162.7 106.01C163.148 105.75 163.514 105.396 163.799 104.948C164.092 104.501 164.307 103.988 164.446 103.41C164.584 102.824 164.653 102.202 164.653 101.542ZM175.286 108.244C174.366 108.244 173.532 108.09 172.783 107.78C172.043 107.463 171.404 107.019 170.867 106.45C170.338 105.88 169.931 105.205 169.646 104.423C169.361 103.642 169.219 102.788 169.219 101.86V101.347C169.219 100.273 169.377 99.3167 169.695 98.4785C170.012 97.6322 170.444 96.916 170.989 96.3301C171.534 95.7441 172.153 95.3006 172.844 94.9995C173.536 94.6984 174.252 94.5479 174.993 94.5479C175.937 94.5479 176.75 94.7106 177.434 95.0361C178.126 95.3617 178.691 95.8174 179.131 96.4033C179.57 96.9811 179.896 97.6647 180.107 98.4541C180.319 99.2354 180.425 100.09 180.425 101.018V102.031H170.562V100.188H178.167V100.017C178.134 99.4307 178.012 98.861 177.8 98.3076C177.597 97.7542 177.271 97.2985 176.824 96.9404C176.376 96.5824 175.766 96.4033 174.993 96.4033C174.48 96.4033 174.008 96.5132 173.577 96.7329C173.145 96.9445 172.775 97.2619 172.466 97.6851C172.157 98.1082 171.917 98.625 171.746 99.2354C171.575 99.8457 171.489 100.55 171.489 101.347V101.86C171.489 102.486 171.575 103.076 171.746 103.63C171.925 104.175 172.181 104.655 172.515 105.07C172.856 105.485 173.267 105.811 173.748 106.047C174.236 106.283 174.789 106.401 175.408 106.401C176.205 106.401 176.881 106.238 177.434 105.913C177.987 105.587 178.472 105.152 178.887 104.606L180.254 105.693C179.969 106.124 179.607 106.535 179.167 106.926C178.728 107.316 178.187 107.634 177.544 107.878C176.909 108.122 176.156 108.244 175.286 108.244ZM185.32 97.6118V108H183.062V94.792H185.198L185.32 97.6118ZM184.783 100.896L183.843 100.859C183.851 99.9556 183.985 99.1214 184.246 98.3564C184.506 97.5833 184.872 96.9119 185.344 96.3423C185.816 95.7726 186.378 95.3332 187.029 95.0239C187.688 94.7065 188.416 94.5479 189.214 94.5479C189.865 94.5479 190.451 94.6374 190.972 94.8164C191.493 94.9873 191.936 95.264 192.302 95.6465C192.677 96.029 192.961 96.5254 193.157 97.1357C193.352 97.738 193.45 98.4744 193.45 99.3452V108H191.179V99.3208C191.179 98.6291 191.077 98.0757 190.874 97.6606C190.671 97.2375 190.374 96.9323 189.983 96.7451C189.592 96.5498 189.112 96.4521 188.542 96.4521C187.981 96.4521 187.468 96.5701 187.004 96.8062C186.549 97.0422 186.154 97.3677 185.82 97.7827C185.495 98.1978 185.238 98.6738 185.051 99.2109C184.872 99.7399 184.783 100.301 184.783 100.896ZM212.896 103.508C212.896 103.093 212.83 102.727 212.7 102.409C212.578 102.084 212.358 101.791 212.041 101.53C211.732 101.27 211.3 101.022 210.747 100.786C210.202 100.55 209.51 100.31 208.672 100.065C207.793 99.805 207 99.5161 206.292 99.1987C205.583 98.8732 204.977 98.5029 204.473 98.0879C203.968 97.6729 203.582 97.1968 203.313 96.6597C203.044 96.1226 202.91 95.5081 202.91 94.8164C202.91 94.1247 203.053 93.4858 203.337 92.8999C203.622 92.314 204.029 91.8053 204.558 91.374C205.095 90.9346 205.734 90.5928 206.475 90.3486C207.215 90.1045 208.041 89.9824 208.953 89.9824C210.287 89.9824 211.418 90.2388 212.346 90.7515C213.282 91.256 213.994 91.9193 214.482 92.7412C214.971 93.555 215.215 94.4258 215.215 95.3535H212.871C212.871 94.6862 212.729 94.0962 212.444 93.5835C212.159 93.0627 211.728 92.6558 211.15 92.3628C210.572 92.0617 209.84 91.9111 208.953 91.9111C208.114 91.9111 207.423 92.0373 206.877 92.2896C206.332 92.5418 205.925 92.8836 205.657 93.3149C205.396 93.7463 205.266 94.2386 205.266 94.792C205.266 95.1663 205.343 95.5081 205.498 95.8174C205.661 96.1185 205.909 96.3993 206.243 96.6597C206.584 96.9201 207.016 97.1602 207.537 97.3799C208.066 97.5996 208.696 97.8112 209.429 98.0146C210.438 98.2995 211.309 98.6169 212.041 98.9668C212.773 99.3167 213.376 99.7114 213.848 100.151C214.328 100.582 214.682 101.075 214.91 101.628C215.146 102.173 215.264 102.792 215.264 103.483C215.264 104.208 215.117 104.863 214.824 105.449C214.531 106.035 214.112 106.535 213.567 106.95C213.022 107.365 212.367 107.687 211.602 107.915C210.845 108.134 209.998 108.244 209.062 108.244C208.241 108.244 207.431 108.13 206.633 107.902C205.844 107.674 205.124 107.333 204.473 106.877C203.83 106.421 203.313 105.86 202.922 105.192C202.54 104.517 202.349 103.736 202.349 102.849H204.692C204.692 103.459 204.81 103.984 205.046 104.423C205.282 104.855 205.604 105.213 206.011 105.498C206.426 105.782 206.894 105.994 207.415 106.132C207.944 106.263 208.493 106.328 209.062 106.328C209.884 106.328 210.58 106.214 211.15 105.986C211.72 105.758 212.151 105.432 212.444 105.009C212.745 104.586 212.896 104.086 212.896 103.508ZM223.406 108.244C222.486 108.244 221.652 108.09 220.903 107.78C220.163 107.463 219.524 107.019 218.987 106.45C218.458 105.88 218.051 105.205 217.766 104.423C217.481 103.642 217.339 102.788 217.339 101.86V101.347C217.339 100.273 217.498 99.3167 217.815 98.4785C218.132 97.6322 218.564 96.916 219.109 96.3301C219.654 95.7441 220.273 95.3006 220.964 94.9995C221.656 94.6984 222.372 94.5479 223.113 94.5479C224.057 94.5479 224.871 94.7106 225.554 95.0361C226.246 95.3617 226.812 95.8174 227.251 96.4033C227.69 96.9811 228.016 97.6647 228.228 98.4541C228.439 99.2354 228.545 100.09 228.545 101.018V102.031H218.682V100.188H226.287V100.017C226.254 99.4307 226.132 98.861 225.92 98.3076C225.717 97.7542 225.391 97.2985 224.944 96.9404C224.496 96.5824 223.886 96.4033 223.113 96.4033C222.6 96.4033 222.128 96.5132 221.697 96.7329C221.265 96.9445 220.895 97.2619 220.586 97.6851C220.277 98.1082 220.037 98.625 219.866 99.2354C219.695 99.8457 219.609 100.55 219.609 101.347V101.86C219.609 102.486 219.695 103.076 219.866 103.63C220.045 104.175 220.301 104.655 220.635 105.07C220.977 105.485 221.388 105.811 221.868 106.047C222.356 106.283 222.909 106.401 223.528 106.401C224.325 106.401 225.001 106.238 225.554 105.913C226.108 105.587 226.592 105.152 227.007 104.606L228.374 105.693C228.089 106.124 227.727 106.535 227.288 106.926C226.848 107.316 226.307 107.634 225.664 107.878C225.029 108.122 224.277 108.244 223.406 108.244ZM238.97 105.742V98.9424C238.97 98.4215 238.864 97.9699 238.652 97.5874C238.449 97.1968 238.14 96.8957 237.725 96.6841C237.31 96.4725 236.797 96.3667 236.187 96.3667C235.617 96.3667 235.116 96.4644 234.685 96.6597C234.262 96.855 233.928 97.1113 233.684 97.4287C233.448 97.7461 233.33 98.0879 233.33 98.4541H231.072C231.072 97.9821 231.194 97.5142 231.438 97.0503C231.682 96.5864 232.032 96.1673 232.488 95.793C232.952 95.4105 233.505 95.1094 234.148 94.8896C234.799 94.6618 235.523 94.5479 236.321 94.5479C237.281 94.5479 238.127 94.7106 238.86 95.0361C239.6 95.3617 240.178 95.854 240.593 96.5132C241.016 97.1642 241.228 97.9821 241.228 98.9668V105.119C241.228 105.559 241.265 106.027 241.338 106.523C241.419 107.019 241.537 107.447 241.692 107.805V108H239.336C239.222 107.74 239.132 107.394 239.067 106.962C239.002 106.523 238.97 106.116 238.97 105.742ZM239.36 99.9922L239.385 101.579H237.102C236.459 101.579 235.885 101.632 235.381 101.738C234.876 101.835 234.453 101.986 234.111 102.189C233.77 102.393 233.509 102.649 233.33 102.958C233.151 103.26 233.062 103.614 233.062 104.021C233.062 104.436 233.155 104.814 233.342 105.156C233.529 105.498 233.81 105.77 234.185 105.974C234.567 106.169 235.035 106.267 235.588 106.267C236.28 106.267 236.89 106.12 237.419 105.827C237.948 105.534 238.368 105.176 238.677 104.753C238.994 104.33 239.165 103.919 239.189 103.52L240.154 104.606C240.097 104.948 239.942 105.327 239.69 105.742C239.438 106.157 239.1 106.556 238.677 106.938C238.262 107.312 237.765 107.626 237.188 107.878C236.618 108.122 235.975 108.244 235.259 108.244C234.364 108.244 233.578 108.069 232.903 107.719C232.236 107.369 231.715 106.901 231.34 106.315C230.974 105.721 230.791 105.058 230.791 104.326C230.791 103.618 230.929 102.995 231.206 102.458C231.483 101.913 231.882 101.461 232.402 101.103C232.923 100.737 233.55 100.46 234.282 100.273C235.015 100.086 235.833 99.9922 236.736 99.9922H239.36ZM247.039 96.8672V108H244.78V94.792H246.978L247.039 96.8672ZM251.165 94.7188L251.152 96.8184C250.965 96.7777 250.786 96.7533 250.615 96.7451C250.452 96.7288 250.265 96.7207 250.054 96.7207C249.533 96.7207 249.073 96.8021 248.674 96.9648C248.276 97.1276 247.938 97.3555 247.661 97.6484C247.384 97.9414 247.165 98.2913 247.002 98.6982C246.847 99.097 246.746 99.5365 246.697 100.017L246.062 100.383C246.062 99.5853 246.139 98.8366 246.294 98.1367C246.457 97.4368 246.705 96.8184 247.039 96.2812C247.372 95.736 247.795 95.3128 248.308 95.0117C248.829 94.7025 249.447 94.5479 250.164 94.5479C250.326 94.5479 250.514 94.5682 250.725 94.6089C250.937 94.6414 251.083 94.6781 251.165 94.7188ZM258.293 106.389C258.831 106.389 259.327 106.279 259.783 106.059C260.238 105.839 260.613 105.538 260.906 105.156C261.199 104.765 261.366 104.322 261.406 103.825H263.555C263.514 104.606 263.25 105.335 262.761 106.01C262.281 106.678 261.65 107.219 260.869 107.634C260.088 108.041 259.229 108.244 258.293 108.244C257.301 108.244 256.434 108.069 255.693 107.719C254.961 107.369 254.351 106.889 253.862 106.279C253.382 105.668 253.02 104.969 252.776 104.179C252.54 103.382 252.422 102.539 252.422 101.652V101.14C252.422 100.253 252.54 99.4144 252.776 98.625C253.02 97.8275 253.382 97.1235 253.862 96.5132C254.351 95.9028 254.961 95.4227 255.693 95.0728C256.434 94.7228 257.301 94.5479 258.293 94.5479C259.327 94.5479 260.23 94.7594 261.003 95.1826C261.777 95.5977 262.383 96.1673 262.822 96.8916C263.27 97.6077 263.514 98.4215 263.555 99.333H261.406C261.366 98.7878 261.211 98.2954 260.942 97.856C260.682 97.4165 260.324 97.0666 259.868 96.8062C259.421 96.5376 258.896 96.4033 258.293 96.4033C257.602 96.4033 257.02 96.5417 256.548 96.8184C256.084 97.0869 255.714 97.4531 255.437 97.917C255.168 98.3727 254.973 98.8813 254.851 99.4429C254.737 99.9963 254.68 100.562 254.68 101.14V101.652C254.68 102.23 254.737 102.8 254.851 103.361C254.965 103.923 255.156 104.431 255.425 104.887C255.701 105.343 256.072 105.709 256.536 105.986C257.008 106.254 257.594 106.389 258.293 106.389ZM268.352 89.25V108H266.094V89.25H268.352ZM267.815 100.896L266.875 100.859C266.883 99.9556 267.017 99.1214 267.278 98.3564C267.538 97.5833 267.904 96.9119 268.376 96.3423C268.848 95.7726 269.41 95.3332 270.061 95.0239C270.72 94.7065 271.449 94.5479 272.246 94.5479C272.897 94.5479 273.483 94.6374 274.004 94.8164C274.525 94.9873 274.968 95.264 275.334 95.6465C275.709 96.029 275.994 96.5254 276.189 97.1357C276.384 97.738 276.482 98.4744 276.482 99.3452V108H274.211V99.3208C274.211 98.6291 274.11 98.0757 273.906 97.6606C273.703 97.2375 273.406 96.9323 273.015 96.7451C272.625 96.5498 272.144 96.4521 271.575 96.4521C271.013 96.4521 270.5 96.5701 270.037 96.8062C269.581 97.0422 269.186 97.3677 268.853 97.7827C268.527 98.1978 268.271 98.6738 268.083 99.2109C267.904 99.7399 267.815 100.301 267.815 100.896ZM297.698 106.083V108H288.286V106.083H297.698ZM288.762 90.2266V108H286.406V90.2266H288.762ZM296.453 97.8682V99.7847H288.286V97.8682H296.453ZM297.576 90.2266V92.1553H288.286V90.2266H297.576ZM302.532 97.6118V108H300.273V94.792H302.41L302.532 97.6118ZM301.995 100.896L301.055 100.859C301.063 99.9556 301.197 99.1214 301.458 98.3564C301.718 97.5833 302.084 96.9119 302.556 96.3423C303.028 95.7726 303.59 95.3332 304.241 95.0239C304.9 94.7065 305.628 94.5479 306.426 94.5479C307.077 94.5479 307.663 94.6374 308.184 94.8164C308.704 94.9873 309.148 95.264 309.514 95.6465C309.889 96.029 310.173 96.5254 310.369 97.1357C310.564 97.738 310.662 98.4744 310.662 99.3452V108H308.391V99.3208C308.391 98.6291 308.289 98.0757 308.086 97.6606C307.882 97.2375 307.585 96.9323 307.195 96.7451C306.804 96.5498 306.324 96.4521 305.754 96.4521C305.193 96.4521 304.68 96.5701 304.216 96.8062C303.761 97.0422 303.366 97.3677 303.032 97.7827C302.707 98.1978 302.45 98.6738 302.263 99.2109C302.084 99.7399 301.995 100.301 301.995 100.896ZM322.649 94.792H324.7V107.719C324.7 108.883 324.464 109.876 323.992 110.698C323.52 111.52 322.861 112.142 322.014 112.565C321.176 112.997 320.208 113.212 319.109 113.212C318.653 113.212 318.116 113.139 317.498 112.993C316.887 112.854 316.285 112.614 315.691 112.272C315.105 111.939 314.613 111.487 314.214 110.917L315.398 109.575C315.951 110.242 316.529 110.706 317.131 110.966C317.742 111.227 318.344 111.357 318.938 111.357C319.654 111.357 320.273 111.223 320.793 110.954C321.314 110.686 321.717 110.287 322.002 109.758C322.295 109.237 322.441 108.594 322.441 107.829V97.6973L322.649 94.792ZM313.555 101.542V101.286C313.555 100.277 313.673 99.3615 313.909 98.5396C314.153 97.7095 314.499 96.9974 314.946 96.4033C315.402 95.8092 315.951 95.3535 316.594 95.0361C317.237 94.7106 317.961 94.5479 318.767 94.5479C319.597 94.5479 320.321 94.6943 320.94 94.9873C321.567 95.2721 322.096 95.6912 322.527 96.2446C322.966 96.7899 323.312 97.4491 323.564 98.2222C323.817 98.9953 323.992 99.8701 324.089 100.847V101.97C324 102.938 323.825 103.809 323.564 104.582C323.312 105.355 322.966 106.014 322.527 106.56C322.096 107.105 321.567 107.524 320.94 107.817C320.313 108.102 319.581 108.244 318.743 108.244C317.953 108.244 317.237 108.077 316.594 107.744C315.959 107.41 315.414 106.942 314.958 106.34C314.503 105.738 314.153 105.03 313.909 104.216C313.673 103.394 313.555 102.503 313.555 101.542ZM315.813 101.286V101.542C315.813 102.202 315.878 102.82 316.008 103.398C316.147 103.976 316.354 104.484 316.631 104.924C316.916 105.363 317.278 105.709 317.717 105.961C318.157 106.206 318.682 106.328 319.292 106.328C320.041 106.328 320.659 106.169 321.147 105.852C321.636 105.534 322.022 105.115 322.307 104.594C322.6 104.073 322.828 103.508 322.991 102.897V99.9556C322.901 99.508 322.763 99.0767 322.576 98.6616C322.397 98.2384 322.161 97.8641 321.868 97.5386C321.583 97.2049 321.229 96.9404 320.806 96.7451C320.382 96.5498 319.886 96.4521 319.316 96.4521C318.698 96.4521 318.165 96.5824 317.717 96.8428C317.278 97.0951 316.916 97.445 316.631 97.8926C316.354 98.332 316.147 98.8447 316.008 99.4307C315.878 100.008 315.813 100.627 315.813 101.286ZM330.583 94.792V108H328.313V94.792H330.583ZM328.142 91.2886C328.142 90.9224 328.252 90.6131 328.472 90.3608C328.7 90.1086 329.033 89.9824 329.473 89.9824C329.904 89.9824 330.234 90.1086 330.461 90.3608C330.697 90.6131 330.815 90.9224 330.815 91.2886C330.815 91.6385 330.697 91.9396 330.461 92.1919C330.234 92.436 329.904 92.5581 329.473 92.5581C329.033 92.5581 328.7 92.436 328.472 92.1919C328.252 91.9396 328.142 91.6385 328.142 91.2886ZM336.467 97.6118V108H334.209V94.792H336.345L336.467 97.6118ZM335.93 100.896L334.99 100.859C334.998 99.9556 335.133 99.1214 335.393 98.3564C335.653 97.5833 336.02 96.9119 336.492 96.3423C336.964 95.7726 337.525 95.3332 338.176 95.0239C338.835 94.7065 339.564 94.5479 340.361 94.5479C341.012 94.5479 341.598 94.6374 342.119 94.8164C342.64 94.9873 343.083 95.264 343.45 95.6465C343.824 96.029 344.109 96.5254 344.304 97.1357C344.5 97.738 344.597 98.4744 344.597 99.3452V108H342.327V99.3208C342.327 98.6291 342.225 98.0757 342.021 97.6606C341.818 97.2375 341.521 96.9323 341.13 96.7451C340.74 96.5498 340.26 96.4521 339.69 96.4521C339.128 96.4521 338.616 96.5701 338.152 96.8062C337.696 97.0422 337.301 97.3677 336.968 97.7827C336.642 98.1978 336.386 98.6738 336.199 99.2109C336.02 99.7399 335.93 100.301 335.93 100.896ZM353.508 108.244C352.589 108.244 351.755 108.09 351.006 107.78C350.265 107.463 349.626 107.019 349.089 106.45C348.56 105.88 348.153 105.205 347.869 104.423C347.584 103.642 347.441 102.788 347.441 101.86V101.347C347.441 100.273 347.6 99.3167 347.917 98.4785C348.235 97.6322 348.666 96.916 349.211 96.3301C349.757 95.7441 350.375 95.3006 351.067 94.9995C351.759 94.6984 352.475 94.5479 353.215 94.5479C354.159 94.5479 354.973 94.7106 355.657 95.0361C356.348 95.3617 356.914 95.8174 357.354 96.4033C357.793 96.9811 358.118 97.6647 358.33 98.4541C358.542 99.2354 358.647 100.09 358.647 101.018V102.031H348.784V100.188H356.389V100.017C356.357 99.4307 356.235 98.861 356.023 98.3076C355.819 97.7542 355.494 97.2985 355.046 96.9404C354.599 96.5824 353.988 96.4033 353.215 96.4033C352.703 96.4033 352.231 96.5132 351.799 96.7329C351.368 96.9445 350.998 97.2619 350.688 97.6851C350.379 98.1082 350.139 98.625 349.968 99.2354C349.797 99.8457 349.712 100.55 349.712 101.347V101.86C349.712 102.486 349.797 103.076 349.968 103.63C350.147 104.175 350.404 104.655 350.737 105.07C351.079 105.485 351.49 105.811 351.97 106.047C352.458 106.283 353.012 106.401 353.63 106.401C354.428 106.401 355.103 106.238 355.657 105.913C356.21 105.587 356.694 105.152 357.109 104.606L358.477 105.693C358.192 106.124 357.83 106.535 357.39 106.926C356.951 107.316 356.41 107.634 355.767 107.878C355.132 108.122 354.379 108.244 353.508 108.244Z" fill="#6B7280"/>
<path d="M69.2179 66.35C65.5779 66.35 62.1245 65.7433 58.8579 64.53C55.6379 63.27 53.1412 61.66 51.3679 59.7L52.9779 57.04C54.6579 58.7667 56.9445 60.2367 59.8379 61.45C62.7779 62.6167 65.8812 63.2 69.1479 63.2C72.4145 63.2 75.0745 62.78 77.1279 61.94C79.2279 61.0533 80.7679 59.8867 81.7479 58.44C82.7745 56.9933 83.2879 55.3833 83.2879 53.61C83.2879 51.51 82.7279 49.83 81.6079 48.57C80.4879 47.31 79.0179 46.3067 77.1979 45.56C75.3779 44.8133 73.3945 44.1833 71.2479 43.67C69.1012 43.1567 66.9312 42.62 64.7379 42.06C62.5445 41.4533 60.5379 40.6833 58.7179 39.75C56.8979 38.8167 55.4279 37.5567 54.3079 35.97C53.2345 34.3367 52.6979 32.2367 52.6979 29.67C52.6979 27.3367 53.3045 25.19 54.5179 23.23C55.7312 21.27 57.6212 19.6833 60.1879 18.47C62.7545 17.2567 66.0445 16.65 70.0579 16.65C72.7645 16.65 75.4245 17.0467 78.0379 17.84C80.6979 18.6333 82.9612 19.7067 84.8279 21.06L83.4979 23.93C81.4445 22.53 79.2279 21.5033 76.8479 20.85C74.5145 20.15 72.2512 19.8 70.0579 19.8C66.9312 19.8 64.3412 20.2433 62.2879 21.13C60.2345 22.0167 58.7179 23.2067 57.7379 24.7C56.7579 26.1467 56.2679 27.78 56.2679 29.6C56.2679 31.7 56.8045 33.38 57.8779 34.64C58.9979 35.9 60.4679 36.9033 62.2879 37.65C64.1079 38.3967 66.1145 39.0267 68.3079 39.54C70.5012 40.0533 72.6712 40.6133 74.8179 41.22C76.9645 41.78 78.9479 42.5267 80.7679 43.46C82.5879 44.3933 84.0579 45.6533 85.1779 47.24C86.2979 48.8267 86.8579 50.88 86.8579 53.4C86.8579 55.6867 86.2279 57.8333 84.9679 59.84C83.7079 61.8 81.7712 63.3867 79.1579 64.6C76.5912 65.7667 73.2779 66.35 69.2179 66.35ZM107.691 66V20.22H90.0505V17H128.901V20.22H111.261V66H107.691ZM137.754 66V17H155.324C159.431 17 162.954 17.6533 165.894 18.96C168.834 20.2667 171.097 22.1567 172.684 24.63C174.271 27.0567 175.064 30.02 175.064 33.52C175.064 36.9267 174.271 39.8667 172.684 42.34C171.097 44.7667 168.834 46.6567 165.894 48.01C162.954 49.3167 159.431 49.97 155.324 49.97H139.714L141.324 48.29V66H137.754ZM171.774 66L159.034 48.22H163.094L175.834 66H171.774ZM141.324 48.5L139.714 46.82H155.324C160.597 46.82 164.587 45.6533 167.294 43.32C170.047 40.9867 171.424 37.72 171.424 33.52C171.424 29.2733 170.047 26.0067 167.294 23.72C164.587 21.3867 160.597 20.22 155.324 20.22H139.714L141.324 18.47V48.5ZM179.945 66L202.485 17H206.055L228.595 66H224.745L203.465 19.24H205.005L183.795 66H179.945ZM188.205 52.21L189.395 49.2H218.725L219.915 52.21H188.205ZM257.527 66.35C253.887 66.35 250.503 65.7433 247.377 64.53C244.297 63.27 241.613 61.52 239.327 59.28C237.04 57.04 235.267 54.4267 234.007 51.44C232.747 48.4067 232.117 45.0933 232.117 41.5C232.117 37.9067 232.747 34.6167 234.007 31.63C235.267 28.5967 237.04 25.96 239.327 23.72C241.66 21.48 244.367 19.7533 247.447 18.54C250.527 17.28 253.887 16.65 257.527 16.65C260.98 16.65 264.2 17.21 267.187 18.33C270.22 19.45 272.81 21.1533 274.957 23.44L272.717 25.75C270.617 23.6967 268.283 22.2267 265.717 21.34C263.197 20.4067 260.513 19.94 257.667 19.94C254.54 19.94 251.623 20.4767 248.917 21.55C246.257 22.6233 243.923 24.14 241.917 26.1C239.957 28.06 238.417 30.3467 237.297 32.96C236.223 35.5733 235.687 38.42 235.687 41.5C235.687 44.58 236.223 47.4267 237.297 50.04C238.417 52.6533 239.957 54.94 241.917 56.9C243.923 58.86 246.257 60.3767 248.917 61.45C251.623 62.5233 254.54 63.06 257.667 63.06C260.513 63.06 263.197 62.6167 265.717 61.73C268.283 60.7967 270.617 59.28 272.717 57.18L274.957 59.49C272.81 61.7767 270.22 63.5033 267.187 64.67C264.2 65.79 260.98 66.35 257.527 66.35ZM295.679 66V20.22H278.039V17H316.889V20.22H299.249V66H295.679Z" fill="#0B7BFF"/>
</svg>
