<svg width="158" height="53" viewBox="0 0 158 53" fill="none" xmlns="http://www.w3.org/2000/svg">
<g clip-path="url(#clip0_110_2)">
<path d="M14.2673 31.2C12.1873 31.2 10.214 30.8533 8.34734 30.16C6.50734 29.44 5.08068 28.52 4.06734 27.4L4.98734 25.88C5.94734 26.8667 7.25401 27.7067 8.90734 28.4C10.5873 29.0667 12.3607 29.4 14.2273 29.4C16.094 29.4 17.614 29.16 18.7873 28.68C19.9873 28.1733 20.8673 27.5067 21.4273 26.68C22.014 25.8533 22.3073 24.9333 22.3073 23.92C22.3073 22.72 21.9873 21.76 21.3473 21.04C20.7073 20.32 19.8673 19.7467 18.8273 19.32C17.7873 18.8933 16.654 18.5333 15.4273 18.24C14.2007 17.9467 12.9607 17.64 11.7073 17.32C10.454 16.9733 9.30734 16.5333 8.26734 16C7.22734 15.4667 6.38734 14.7467 5.74734 13.84C5.13401 12.9067 4.82734 11.7067 4.82734 10.24C4.82734 8.90667 5.17401 7.68 5.86734 6.56C6.56068 5.44 7.64068 4.53333 9.10734 3.84C10.574 3.14667 12.454 2.8 14.7473 2.8C16.294 2.8 17.814 3.02667 19.3073 3.48C20.8273 3.93333 22.1207 4.54667 23.1873 5.32L22.4273 6.96C21.254 6.16 19.9873 5.57333 18.6273 5.2C17.294 4.8 16.0007 4.6 14.7473 4.6C12.9607 4.6 11.4807 4.85333 10.3073 5.36C9.13401 5.86667 8.26734 6.54667 7.70734 7.4C7.14734 8.22667 6.86734 9.16 6.86734 10.2C6.86734 11.4 7.17401 12.36 7.78734 13.08C8.42734 13.8 9.26734 14.3733 10.3073 14.8C11.3473 15.2267 12.494 15.5867 13.7473 15.88C15.0007 16.1733 16.2407 16.4933 17.4673 16.84C18.694 17.16 19.8273 17.5867 20.8673 18.12C21.9073 18.6533 22.7473 19.3733 23.3873 20.28C24.0273 21.1867 24.3473 22.36 24.3473 23.8C24.3473 25.1067 23.9873 26.3333 23.2673 27.48C22.5473 28.6 21.4407 29.5067 19.9473 30.2C18.4807 30.8667 16.5873 31.2 14.2673 31.2ZM36.2517 31V4.84H26.1717V3H48.3717V4.84H38.2917V31H36.2517ZM53.4308 31V3H63.4708C65.8174 3 67.8308 3.37333 69.5108 4.12C71.1908 4.86666 72.4841 5.94666 73.3908 7.36C74.2974 8.74667 74.7508 10.44 74.7508 12.44C74.7508 14.3867 74.2974 16.0667 73.3908 17.48C72.4841 18.8667 71.1908 19.9467 69.5108 20.72C67.8308 21.4667 65.8174 21.84 63.4708 21.84H54.5508L55.4708 20.88V31H53.4308ZM72.8708 31L65.5908 20.84H67.9108L75.1908 31H72.8708ZM55.4708 21L54.5508 20.04H63.4708C66.4841 20.04 68.7641 19.3733 70.3108 18.04C71.8841 16.7067 72.6708 14.84 72.6708 12.44C72.6708 10.0133 71.8841 8.14667 70.3108 6.84C68.7641 5.50667 66.4841 4.84 63.4708 4.84H54.5508L55.4708 3.84V21ZM77.5398 31L90.4198 3H92.4598L105.34 31H103.14L90.9798 4.28H91.8598L79.7398 31H77.5398ZM82.2598 23.12L82.9398 21.4H99.6998L100.38 23.12H82.2598ZM121.872 31.2C119.792 31.2 117.859 30.8533 116.072 30.16C114.312 29.44 112.779 28.44 111.472 27.16C110.166 25.88 109.152 24.3867 108.432 22.68C107.712 20.9467 107.352 19.0533 107.352 17C107.352 14.9467 107.712 13.0667 108.432 11.36C109.152 9.62666 110.166 8.12 111.472 6.84C112.806 5.56 114.352 4.57333 116.112 3.88C117.872 3.16 119.792 2.8 121.872 2.8C123.846 2.8 125.686 3.12 127.392 3.76C129.126 4.4 130.606 5.37333 131.832 6.68L130.552 8C129.352 6.82667 128.019 5.98667 126.552 5.48C125.112 4.94667 123.579 4.68 121.952 4.68C120.166 4.68 118.499 4.98666 116.952 5.6C115.432 6.21333 114.099 7.08 112.952 8.2C111.832 9.32 110.952 10.6267 110.312 12.12C109.699 13.6133 109.392 15.24 109.392 17C109.392 18.76 109.699 20.3867 110.312 21.88C110.952 23.3733 111.832 24.68 112.952 25.8C114.099 26.92 115.432 27.7867 116.952 28.4C118.499 29.0133 120.166 29.32 121.952 29.32C123.579 29.32 125.112 29.0667 126.552 28.56C128.019 28.0267 129.352 27.16 130.552 25.96L131.832 27.28C130.606 28.5867 129.126 29.5733 127.392 30.24C125.686 30.88 123.846 31.2 121.872 31.2ZM143.674 31V4.84H133.594V3H155.794V4.84H145.714V31H143.674Z" fill="#0B7BFF"/>
<path d="M54.897 51V37H60.737C62.2437 37 63.4237 37.3067 64.277 37.92C65.1304 38.5333 65.557 39.42 65.557 40.58C65.557 41.34 65.377 41.98 65.017 42.5C64.657 43.02 64.157 43.4133 63.517 43.68C62.8904 43.9333 62.1837 44.06 61.397 44.06L61.757 43.66C62.717 43.66 63.537 43.8 64.217 44.08C64.897 44.36 65.4104 44.7667 65.757 45.3C66.117 45.8333 66.297 46.5 66.297 47.3C66.297 48.4733 65.8704 49.3867 65.017 50.04C64.1637 50.68 62.8704 51 61.137 51H54.897ZM55.917 50.12H61.137C62.4837 50.12 63.5104 49.8933 64.217 49.44C64.9237 48.9733 65.277 48.2333 65.277 47.22C65.277 46.22 64.9237 45.4933 64.217 45.04C63.5104 44.5733 62.4837 44.34 61.137 44.34H55.797V43.46H60.697C61.9104 43.46 62.8504 43.2267 63.517 42.76C64.1837 42.2933 64.517 41.5933 64.517 40.66C64.517 39.74 64.1837 39.0467 63.517 38.58C62.8504 38.1133 61.9104 37.88 60.697 37.88H55.917V50.12ZM70.8361 43.44H78.4161V44.34H70.8361V43.44ZM70.9561 50.08H79.5961V51H69.9361V37H79.2961V37.92H70.9561V50.08ZM85.995 51V37.92H80.955V37H92.055V37.92H87.015V51H85.995ZM91.5414 51L97.9814 37H99.0014L105.441 51H104.341L98.2614 37.64H98.7014L92.6414 51H91.5414ZM93.9014 47.06L94.2414 46.2H102.621L102.961 47.06H93.9014Z" fill="#383838"/>
</g>
<defs>
<clipPath id="clip0_110_2">
<rect width="158" height="53" fill="white"/>
</clipPath>
</defs>
</svg>
