<svg width="180" height="294" viewBox="0 0 180 294" fill="none" xmlns="http://www.w3.org/2000/svg">
<g clip-path="url(#clip0_708_10)">
<path d="M88.616 216.56C74.6213 216.56 61.224 214.597 48.424 210.672C35.624 206.576 25.4693 201.371 17.96 195.056L29.48 169.2C36.648 174.832 45.5227 179.525 56.104 183.28C66.6853 187.035 77.5227 188.912 88.616 188.912C98.0027 188.912 105.597 187.888 111.4 185.84C117.203 183.792 121.469 181.061 124.2 177.648C126.931 174.064 128.296 170.053 128.296 165.616C128.296 160.155 126.333 155.803 122.408 152.56C118.483 149.147 113.363 146.501 107.048 144.624C100.904 142.576 93.992 140.699 86.312 138.992C78.8027 137.285 71.208 135.323 63.528 133.104C56.0187 130.715 49.1067 127.728 42.792 124.144C36.648 120.389 31.6133 115.44 27.688 109.296C23.7627 103.152 21.8 95.3013 21.8 85.744C21.8 76.016 24.36 67.1413 29.48 59.12C34.7707 50.928 42.7067 44.4427 53.288 39.664C64.04 34.7147 77.608 32.24 93.992 32.24C104.744 32.24 115.411 33.6053 125.992 36.336C136.573 39.0667 145.789 42.992 153.64 48.112L143.144 73.968C135.123 69.1893 126.845 65.6907 118.312 63.472C109.779 61.0827 101.587 59.888 93.736 59.888C84.52 59.888 77.0107 60.9973 71.208 63.216C65.576 65.4347 61.3947 68.336 58.664 71.92C56.104 75.504 54.824 79.6 54.824 84.208C54.824 89.6693 56.7013 94.1067 60.456 97.52C64.3813 100.763 69.416 103.323 75.56 105.2C81.8747 107.077 88.872 108.955 96.552 110.832C104.232 112.539 111.827 114.501 119.336 116.72C127.016 118.939 133.928 121.84 140.072 125.424C146.387 129.008 151.421 133.872 155.176 140.016C159.101 146.16 161.064 153.925 161.064 163.312C161.064 172.869 158.419 181.744 153.128 189.936C148.008 197.957 140.072 204.443 129.32 209.392C118.568 214.171 105 216.56 88.616 216.56Z" fill="#2A8BFF"/>
<path d="M53 73.5L53.7672 69.664C54.2544 67.2279 54.9933 64.849 55.9719 62.5656L56.5404 61.2391C57.1783 59.7507 57.9747 58.3354 58.9159 57.0177V57.0177C59.6374 56.0076 60.4411 55.0589 61.3188 54.1812L64 51.5L67 49L67.9322 48.2009C69.6417 46.7357 71.4587 45.4008 73.3679 44.2076L74.5 43.5L78 41.5L82.5 39.5L88.5 37.5L96 35.5L98.0039 34.999C100.662 34.3344 103.376 33.914 106.111 33.7431L110 33.5L114.322 33.7401C117.432 33.9129 120.516 34.4082 123.524 35.2181L132 37.5L140 40.5L150.5 46L154 48L143.5 74L129.5 67.5L120.5 64.5L114.5 62.5L109.5 61.5L105.473 60.8288C104.16 60.61 102.831 60.5 101.5 60.5V60.5L95 60H89L83.5 60.5L80 61L77 61.5L73.5 62.5V62.5C71.5025 63.1658 69.5548 63.9726 67.6716 64.9142L67.5 65L65.5 66L64 67L63.6971 67.2272C62.5671 68.0747 61.4987 69.0013 60.5 70V70L59.4385 71.3268C58.8139 72.1076 58.2559 72.9393 57.7704 73.8133V73.8133C56.6021 75.9161 55.8702 78.2331 55.6184 80.6254L55.5152 81.6061C55.1757 84.8313 55.5306 88.0918 56.5562 91.1685L57.5 94V94C53.9421 88.8248 52.2734 82.5829 52.7742 76.3227L53 73.5Z" fill="url(#paint0_linear_708_10)"/>
</g>
<path d="M11.5773 289V244.2H30.9053C35.8973 244.2 39.7586 245.203 42.4893 247.208C45.2626 249.213 46.6493 252.051 46.6493 255.72C46.6493 258.152 46.0733 260.2 44.9213 261.864C43.8119 263.528 42.2759 264.787 40.3133 265.64C38.3933 266.493 36.2813 266.92 33.9773 266.92L35.0653 265.384C37.9239 265.384 40.3773 265.832 42.4253 266.728C44.5159 267.581 46.1373 268.883 47.2893 270.632C48.4413 272.339 49.0173 274.472 49.0173 277.032C49.0173 280.829 47.6093 283.773 44.7933 285.864C42.0199 287.955 37.8173 289 32.1853 289H11.5773ZM16.3133 285.096H32.1213C36.0466 285.096 39.0546 284.435 41.1453 283.112C43.2359 281.747 44.2812 279.592 44.2812 276.648C44.2812 273.747 43.2359 271.635 41.1453 270.312C39.0546 268.947 36.0466 268.264 32.1213 268.264H15.8013V264.36H30.5853C34.1693 264.36 36.9426 263.677 38.9053 262.312C40.9106 260.947 41.9132 258.92 41.9132 256.232C41.9132 253.501 40.9106 251.475 38.9053 250.152C36.9426 248.787 34.1693 248.104 30.5853 248.104H16.3133V285.096ZM64.0513 264.232H87.7313V268.264H64.0513V264.232ZM64.5633 284.904H91.5073V289H59.8273V244.2H90.5473V248.296H64.5633V284.904ZM111.344 289V248.296H95.5998V244.2H131.824V248.296H116.08V289H111.344ZM129.972 289L150.452 244.2H155.124L175.604 289H170.612L151.796 246.952H153.716L134.9 289H129.972ZM138.036 277.032L139.444 273.192H165.492L166.9 277.032H138.036Z" fill="#828282"/>
<defs>
<linearGradient id="paint0_linear_708_10" x1="50.5" y1="79" x2="134.5" y2="45" gradientUnits="userSpaceOnUse">
<stop offset="0.146614" stop-color="white"/>
<stop offset="1" stop-color="#D9D9D9" stop-opacity="0"/>
</linearGradient>
<clipPath id="clip0_708_10">
<rect width="161" height="197" fill="white" transform="translate(9 23)"/>
</clipPath>
</defs>
</svg>
