<svg width="161" height="197" viewBox="0 0 161 197" fill="none" xmlns="http://www.w3.org/2000/svg">
<g clip-path="url(#clip0_604_16)">
<path d="M79.616 193.56C65.6213 193.56 52.224 191.597 39.424 187.672C26.624 183.576 16.4693 178.371 8.96 172.056L20.48 146.2C27.648 151.832 36.5227 156.525 47.104 160.28C57.6853 164.035 68.5227 165.912 79.616 165.912C89.0027 165.912 96.5973 164.888 102.4 162.84C108.203 160.792 112.469 158.061 115.2 154.648C117.931 151.064 119.296 147.053 119.296 142.616C119.296 137.155 117.333 132.803 113.408 129.56C109.483 126.147 104.363 123.501 98.048 121.624C91.904 119.576 84.992 117.699 77.312 115.992C69.8027 114.285 62.208 112.323 54.528 110.104C47.0187 107.715 40.1067 104.728 33.792 101.144C27.648 97.3893 22.6133 92.44 18.688 86.296C14.7627 80.152 12.8 72.3013 12.8 62.744C12.8 53.016 15.36 44.1413 20.48 36.12C25.7707 27.928 33.7067 21.4427 44.288 16.664C55.04 11.7147 68.608 9.23999 84.992 9.23999C95.744 9.23999 106.411 10.6053 116.992 13.336C127.573 16.0667 136.789 19.992 144.64 25.112L134.144 50.968C126.123 46.1893 117.845 42.6907 109.312 40.472C100.779 38.0827 92.5867 36.888 84.736 36.888C75.52 36.888 68.0107 37.9973 62.208 40.216C56.576 42.4347 52.3947 45.336 49.664 48.92C47.104 52.504 45.824 56.6 45.824 61.208C45.824 66.6693 47.7013 71.1067 51.456 74.52C55.3813 77.7627 60.416 80.3227 66.56 82.2C72.8747 84.0773 79.872 85.9547 87.552 87.832C95.232 89.5387 102.827 91.5013 110.336 93.72C118.016 95.9387 124.928 98.84 131.072 102.424C137.387 106.008 142.421 110.872 146.176 117.016C150.101 123.16 152.064 130.925 152.064 140.312C152.064 149.869 149.419 158.744 144.128 166.936C139.008 174.957 131.072 181.443 120.32 186.392C109.568 191.171 96 193.56 79.616 193.56Z" fill="#2A8BFF"/>
<path d="M44 50.5L44.7672 46.664C45.2544 44.2279 45.9933 41.849 46.9719 39.5656L47.5404 38.2391C48.1783 36.7507 48.9747 35.3354 49.9159 34.0177V34.0177C50.6374 33.0076 51.4411 32.0589 52.3188 31.1812L55 28.5L58 26L58.9322 25.2009C60.6417 23.7357 62.4587 22.4008 64.3679 21.2076L65.5 20.5L69 18.5L73.5 16.5L79.5 14.5L87 12.5L89.0039 11.999C91.6624 11.3344 94.3761 10.914 97.111 10.7431L101 10.5L105.322 10.7401C108.432 10.9129 111.516 11.4082 114.524 12.2181L123 14.5L131 17.5L141.5 23L145 25L134.5 51L120.5 44.5L111.5 41.5L105.5 39.5L100.5 38.5L96.4728 37.8288C95.1598 37.61 93.8311 37.5 92.5 37.5V37.5L86 37H80L74.5 37.5L71 38L68 38.5L64.5 39.5V39.5C62.5025 40.1658 60.5548 40.9726 58.6716 41.9142L58.5 42L56.5 43L55 44L54.6971 44.2272C53.5671 45.0747 52.4987 46.0013 51.5 47V47L50.4385 48.3268C49.8139 49.1076 49.2559 49.9393 48.7704 50.8133V50.8133C47.6021 52.9161 46.8702 55.2331 46.6184 57.6254L46.5152 58.6061C46.1757 61.8313 46.5306 65.0918 47.5562 68.1685L48.5 71V71C44.9421 65.8248 43.2734 59.5829 43.7742 53.3227L44 50.5Z" fill="url(#paint0_linear_604_16)"/>
</g>
<defs>
<linearGradient id="paint0_linear_604_16" x1="41.5" y1="56" x2="125.5" y2="22" gradientUnits="userSpaceOnUse">
<stop offset="0.146614" stop-color="white"/>
<stop offset="1" stop-color="#D9D9D9" stop-opacity="0"/>
</linearGradient>
<clipPath id="clip0_604_16">
<rect width="161" height="197" fill="white"/>
</clipPath>
</defs>
</svg>
