<svg width="1707" height="1502" viewBox="0 0 1707 1502" fill="none" xmlns="http://www.w3.org/2000/svg">
<g clip-path="url(#clip0_201_7)">
<path d="M826.8 2.66675C821.333 4.00008 811.733 7.60008 805.467 10.8001C796.133 15.4668 791.467 19.0668 780.533 30.0001C772.4 38.0001 764 47.8668 759.6 54.6668C748.267 72.2668 668.8 212.267 364.667 750C258.933 936.933 136.133 1154.27 91.7333 1232.67C47.3333 1311.2 9.46665 1379.07 7.59998 1383.47C-2.93335 1408.4 -2.00002 1436 10.1333 1458C12.1333 1461.73 18.6666 1469.47 24.5333 1475.33C36.6666 1487.33 48.1333 1493.87 65.3333 1498.67L75.4667 1501.33L859.333 1501.07L1643.33 1500.67L1654.13 1497.07C1702.53 1480.53 1720 1430.53 1694.67 1380C1691.87 1374.27 1574.8 1169.33 1434.53 924.4C1294.27 679.6 1126.8 387.2 1062.4 274.667C997.867 162.133 941.2 64.0001 936.267 56.6668C920.533 33.0668 900.533 15.2001 880.4 6.93342C863.733 8.44598e-05 844.133 -1.59992 826.8 2.66675ZM1041.07 457.333C1146.8 641.733 1310.27 927.067 1404.27 1091.33L1575.33 1390L1213.73 1390.4C1014.8 1390.53 689.2 1390.53 490.133 1390.4L128.133 1390L350.267 997.333C775.333 245.733 846.933 119.6 848.133 121.067C848.667 121.6 935.467 272.933 1041.07 457.333Z" fill="#FF690B" fill-opacity="0.75" stroke="#FF690B" stroke-opacity="0.75" stroke-width="0.133333"/>
<path d="M838.667 451.467C836.8 451.867 830.533 453.333 824.8 454.8C772.8 467.867 730.667 518 730.667 566.4C730.667 572.533 733.6 600.267 737.333 627.867C740.933 655.467 752.4 742.133 762.667 820.667C789.467 1025.33 789.2 1022.93 791.467 1031.47C797.067 1053.47 810.267 1071.07 827.6 1079.6C836.533 1084 839.067 1084.67 850 1085.07C870.267 1086 882.8 1081.07 896.4 1066.93C909.6 1052.93 915.6 1037.07 919.867 1005.07C921.333 993.867 928 943.467 934.667 892.933C941.2 842.533 952.133 760.133 958.667 709.6C965.333 659.2 972 608.8 973.467 597.6C976.667 573.333 976.8 556.933 974 546C963.067 502.933 926 466.133 881.6 454.533C871.6 451.867 846.133 450.133 838.667 451.467Z" fill="#FF690B" fill-opacity="0.75" stroke="#FF690B" stroke-opacity="0.75" stroke-width="0.133333"/>
<path d="M842.933 1136.13C796.933 1142 763.733 1185.6 769.333 1232.93C772 1255.07 780.8 1273.07 796.533 1287.6C811.733 1301.87 828.133 1308.93 848.667 1310.27C873.6 1311.73 893.467 1304 912 1285.33C929.867 1267.47 937.6 1248.93 937.733 1223.33C937.867 1207.87 936 1198.93 930 1186C914 1151.2 879.467 1131.47 842.933 1136.13Z" fill="#FF690B" fill-opacity="0.75" stroke="#FF690B" stroke-opacity="0.75" stroke-width="0.133333"/>
</g>
<defs>
<clipPath id="clip0_201_7">
<rect width="1706.67" height="1501.33" fill="white"/>
</clipPath>
</defs>
</svg>
