<svg width="24" height="24" viewBox="0 0 24 24" fill="none" xmlns="http://www.w3.org/2000/svg">
<g clip-path="url(#clip0_402_3)">
<mask id="path-1-inside-1_402_3" fill="white">
<path fill-rule="evenodd" clip-rule="evenodd" d="M23.817 20.4857C22.0574 22.002 19.8551 23.0854 17.44 23.6229C16.325 23.868 15.156 24 13.952 24C11.9582 24.0013 9.9875 23.6348 8.17366 22.9253C6.35982 22.2159 4.74538 21.18 3.44002 19.8883C1.21671 17.7027 -0.00562695 14.8997 1.9475e-05 12C1.9475e-05 8.98029 1.29802 6.22114 3.44002 4.11171C4.74538 2.81997 6.35982 1.78418 8.17366 1.0747C9.9875 0.365225 11.9582 -0.00130679 13.952 3.50069e-06C15.156 3.50069e-06 16.325 0.132003 17.44 0.377146C19.8551 0.914537 22.0574 1.99798 23.817 3.51429L18.884 7.75714C18.238 7.19964 17.4696 6.75733 16.6231 6.45574C15.7766 6.15415 14.8687 5.99925 13.952 6C10.1 6 6.97602 8.68629 6.97602 12L6.97802 12.1543C7.07402 15.3977 10.16 18 13.952 18C15.878 18 17.622 17.328 18.884 16.2429L23.817 20.4857Z"/>
</mask>
<path fill-rule="evenodd" clip-rule="evenodd" d="M23.817 20.4857C22.0574 22.002 19.8551 23.0854 17.44 23.6229C16.325 23.868 15.156 24 13.952 24C11.9582 24.0013 9.9875 23.6348 8.17366 22.9253C6.35982 22.2159 4.74538 21.18 3.44002 19.8883C1.21671 17.7027 -0.00562695 14.8997 1.9475e-05 12C1.9475e-05 8.98029 1.29802 6.22114 3.44002 4.11171C4.74538 2.81997 6.35982 1.78418 8.17366 1.0747C9.9875 0.365225 11.9582 -0.00130679 13.952 3.50069e-06C15.156 3.50069e-06 16.325 0.132003 17.44 0.377146C19.8551 0.914537 22.0574 1.99798 23.817 3.51429L18.884 7.75714C18.238 7.19964 17.4696 6.75733 16.6231 6.45574C15.7766 6.15415 14.8687 5.99925 13.952 6C10.1 6 6.97602 8.68629 6.97602 12L6.97802 12.1543C7.07402 15.3977 10.16 18 13.952 18C15.878 18 17.622 17.328 18.884 16.2429L23.817 20.4857Z" fill="#0B7BFF" stroke="#1D1D1F" stroke-width="0.1" mask="url(#path-1-inside-1_402_3)"/>
<path fill-rule="evenodd" clip-rule="evenodd" d="M18.884 7.75713C18.238 7.19963 17.4696 6.75732 16.6231 6.45573C15.7766 6.15414 14.8688 5.99925 13.952 5.99999C10.1 5.99999 6.97603 8.68628 6.97603 12C6.9731 10.4247 7.33257 8.86439 8.03386 7.40835C8.73515 5.95228 9.7645 4.62903 11.063 3.51428C12.8226 1.99797 15.025 0.914529 17.44 0.377136L18.884 7.75713Z" fill="url(#paint0_linear_402_3)"/>
<path d="M7.78497 20.837L8.63461 18.8274L9.43923 19.1676C9.58707 19.2301 9.70112 19.3042 9.78136 19.3898C9.86161 19.4754 9.91014 19.5676 9.92694 19.6665C9.94402 19.7647 9.93127 19.8641 9.88867 19.9649C9.85548 20.0434 9.81061 20.1058 9.75404 20.152C9.69775 20.1976 9.6341 20.2278 9.56311 20.2425C9.49305 20.2568 9.41971 20.257 9.34307 20.2431L9.33478 20.2628C9.40993 20.2984 9.47243 20.3503 9.52229 20.4184C9.5728 20.4868 9.60377 20.5658 9.61521 20.6555C9.62693 20.7445 9.61191 20.8383 9.57015 20.9371C9.52507 21.0438 9.45833 21.1277 9.36994 21.1891C9.28248 21.25 9.17717 21.283 9.054 21.288C8.93083 21.293 8.79402 21.2636 8.64356 21.2L7.78497 20.837ZM8.35671 20.6693L8.70309 20.8158C8.82149 20.8658 8.91739 20.8798 8.99076 20.8576C9.06442 20.8347 9.11729 20.7854 9.14937 20.7095C9.17288 20.6539 9.18021 20.5992 9.17137 20.5453C9.16253 20.4914 9.13836 20.4419 9.09888 20.3967C9.06005 20.3517 9.00662 20.3149 8.93859 20.2861L8.5824 20.1355L8.35671 20.6693ZM8.70395 19.848L9.01893 19.9812C9.07715 20.0058 9.13312 20.0175 9.18683 20.0163C9.24147 20.0147 9.28989 20.0005 9.3321 19.9736C9.37496 19.947 9.4076 19.9072 9.43 19.8542C9.4607 19.7816 9.45961 19.7122 9.42674 19.6458C9.39452 19.5798 9.33132 19.5268 9.23712 19.487L8.91429 19.3505L8.70395 19.848Z" fill="white"/>
<path d="M11.0422 21.8422L11.3433 19.6813L12.7994 19.8842L12.7469 20.2609L11.7477 20.1217L11.676 20.6366L12.6003 20.7654L12.5478 21.1421L11.6235 21.0133L11.5516 21.5292L12.555 21.6691L12.5025 22.0457L11.0422 21.8422Z" fill="white"/>
<path d="M13.8144 20.1909L13.7678 19.8134L15.5461 19.5935L15.5928 19.9709L14.9299 20.0529L15.151 21.8408L14.6985 21.8968L14.4774 20.1089L13.8144 20.1909Z" fill="white"/>
<path d="M17.8133 21.062L17.358 21.2545L17.2021 18.9516L17.7497 18.7201L19.2921 20.4368L18.8368 20.6293L17.6779 19.2918L17.6622 19.2984L17.8133 21.062ZM17.4509 20.2841L18.5263 19.8294L18.6666 20.1611L17.5911 20.6158L17.4509 20.2841Z" fill="white"/>
</g>
<defs>
<linearGradient id="paint0_linear_402_3" x1="18.5" y1="3.49999" x2="7" y2="5.99999" gradientUnits="userSpaceOnUse">
<stop stop-color="#0E7DFF" stop-opacity="0.911017"/>
<stop offset="0.0001" stop-color="#0074FC" stop-opacity="0.65"/>
<stop offset="0.734375" stop-color="white"/>
</linearGradient>
<clipPath id="clip0_402_3">
<rect width="24" height="24" fill="white"/>
</clipPath>
</defs>
</svg>
