<svg width="612" height="161" viewBox="0 0 612 161" fill="none" xmlns="http://www.w3.org/2000/svg">
<g clip-path="url(#clip0_34_120)">
<path d="M93.765 108.696L38.085 86.424V77.976L93.765 55.704V63.64L41.413 84.248V80.152L93.765 100.76V108.696ZM117.342 127V37.4H150.878C158.473 37.4 165.001 38.6373 170.462 41.112C175.923 43.5013 180.105 47 183.006 51.608C185.993 56.1307 187.486 61.6347 187.486 68.12C187.486 74.4347 185.993 79.896 183.006 84.504C180.105 89.0267 175.923 92.5253 170.462 95C165.001 97.3893 158.473 98.584 150.878 98.584H122.59L126.814 94.232V127H117.342ZM178.526 127L155.486 94.488H165.726L188.894 127H178.526ZM126.814 95L122.59 90.52H150.622C159.582 90.52 166.366 88.5573 170.974 84.632C175.667 80.7067 178.014 75.2027 178.014 68.12C178.014 60.952 175.667 55.4053 170.974 51.48C166.366 47.5547 159.582 45.592 150.622 45.592H122.59L126.814 41.112V95ZM218.29 77.464H265.65V85.528H218.29V77.464ZM219.314 118.808H273.202V127H209.842V37.4H271.282V45.592H219.314V118.808ZM320.171 127.768C313.515 127.768 307.115 126.701 300.971 124.568C294.912 122.349 290.219 119.533 286.891 116.12L290.603 108.824C293.76 111.896 297.984 114.499 303.275 116.632C308.651 118.68 314.283 119.704 320.171 119.704C325.803 119.704 330.368 119.021 333.867 117.656C337.451 116.205 340.054 114.285 341.675 111.896C343.382 109.507 344.235 106.861 344.235 103.96C344.235 100.461 343.211 97.6453 341.163 95.512C339.2 93.3787 336.598 91.7147 333.355 90.52C330.112 89.24 326.528 88.1307 322.603 87.192C318.678 86.2533 314.752 85.272 310.827 84.248C306.902 83.1387 303.275 81.688 299.947 79.896C296.704 78.104 294.059 75.7573 292.011 72.856C290.048 69.8693 289.067 65.9867 289.067 61.208C289.067 56.7707 290.219 52.7173 292.523 49.048C294.912 45.2933 298.539 42.3067 303.403 40.088C308.267 37.784 314.496 36.632 322.091 36.632C327.126 36.632 332.118 37.3573 337.067 38.808C342.016 40.1733 346.283 42.0933 349.867 44.568L346.667 52.12C342.827 49.56 338.731 47.6827 334.379 46.488C330.112 45.2933 325.974 44.696 321.963 44.696C316.587 44.696 312.15 45.4213 308.651 46.872C305.152 48.3227 302.55 50.2853 300.843 52.76C299.222 55.1493 298.411 57.88 298.411 60.952C298.411 64.4507 299.392 67.2667 301.355 69.4C303.403 71.5333 306.048 73.1973 309.291 74.392C312.619 75.5867 316.246 76.6533 320.171 77.592C324.096 78.5307 327.979 79.5547 331.819 80.664C335.744 81.7733 339.328 83.224 342.571 85.016C345.899 86.7227 348.544 89.0267 350.507 91.928C352.555 94.8293 353.579 98.6267 353.579 103.32C353.579 107.672 352.384 111.725 349.995 115.48C347.606 119.149 343.936 122.136 338.987 124.44C334.123 126.659 327.851 127.768 320.171 127.768ZM390.375 127V45.592H358.887V37.4H431.335V45.592H399.847V127H390.375ZM462.175 139.8L504.415 19.224H512.735L470.495 139.8H462.175ZM517.21 108.696V100.76L569.562 80.152V84.248L517.21 63.64V55.704L572.89 77.976V86.424L517.21 108.696Z" fill="#00ADE3"/>
</g>
<defs>
<clipPath id="clip0_34_120">
<rect width="612" height="161" fill="white"/>
</clipPath>
</defs>
</svg>
