<svg width="1200" height="800" viewBox="0 0 1200 800" fill="none" xmlns="http://www.w3.org/2000/svg">
<path d="M1009.4 499.159L997.328 474.153C997.391 473.206 997.439 472.255 997.439 471.3C997.439 442.954 967.961 416.829 918.37 395.911V413.304C913.534 411.385 908.499 409.517 903.253 407.711V399.603C832.379 374.043 726.87 357.825 609.012 357.825C506.039 357.825 412.483 370.205 343.221 390.379V418.625H343.219V384.437C272.259 406.987 228.265 438.314 228.265 472.952C228.265 478.412 229.366 483.79 231.482 489.065L224.254 501.932C224.254 501.932 218.462 509.444 228.66 525.294C237.654 539.271 282.708 593.979 306.487 622.629C316.701 637.316 323.628 646.363 324.233 645.488C325.188 644.102 317.882 616.527 297.598 585.065C288.132 568.17 276.83 545.782 270.044 529.246C288.986 541.236 400.274 597.275 627.276 597.047C859.27 596.815 962.391 524.196 973.709 514.31C969.754 530.199 956.241 562.343 945.464 584.948C927.758 617.279 921.344 645.426 922.168 646.818C922.692 647.696 928.733 638.377 937.644 623.275C958.375 593.732 997.661 537.336 1005.51 522.97C1014.41 506.685 1009.4 499.159 1009.4 499.159Z" fill="#A52B00"/>
<path d="M1079.49 499.02L1000.15 440.574C999.402 437.974 998.657 435.373 997.887 432.793L1023.95 395.039C1026.61 391.199 1027.14 386.207 1025.42 381.828C1023.69 377.47 1019.9 374.346 1015.43 373.581L971.362 366.102C969.653 362.617 967.864 359.186 966.068 355.783L984.583 313.395C986.486 309.078 986.088 304.06 983.561 300.141C981.044 296.204 976.775 293.904 972.223 294.083L927.499 295.708C925.184 292.692 922.832 289.705 920.432 286.771L930.71 241.339C931.752 236.727 930.436 231.896 927.223 228.545C924.028 225.206 919.385 223.823 914.97 224.906L871.408 235.615C868.588 233.122 865.72 230.662 862.82 228.25L864.387 181.609C864.555 176.888 862.354 172.401 858.575 169.78C854.798 167.144 850.005 166.748 845.874 168.706L805.236 188.027C801.963 186.149 798.671 184.29 795.344 182.49L788.163 136.529C787.434 131.873 784.439 127.917 780.244 126.111C776.059 124.294 771.268 124.883 767.596 127.647L731.364 154.832C727.795 153.647 724.211 152.512 720.585 151.425L704.968 107.84C703.38 103.397 699.718 100.134 695.252 99.216C690.802 98.307 686.224 99.848 683.138 103.296L652.639 137.415C648.954 136.992 645.262 136.605 641.563 136.284L618.014 96.608C615.63 92.59 611.417 90.144 606.875 90.144C602.346 90.144 598.125 92.59 595.757 96.608L572.202 136.284C568.501 136.605 564.794 136.992 561.114 137.415L530.615 103.296C527.525 99.848 522.931 98.307 518.493 99.216C514.033 100.146 510.365 103.397 508.786 107.84L493.157 151.425C489.536 152.512 485.952 153.655 482.377 154.832L446.157 127.647C442.474 124.873 437.679 124.286 433.489 126.111C429.308 127.917 426.301 131.873 425.576 136.529L418.39 182.49C415.068 184.29 411.776 186.139 408.495 188.027L367.861 168.706C363.734 166.74 358.916 167.144 355.157 169.78C351.384 172.401 349.177 176.888 349.347 181.609L350.909 228.25C348.015 230.662 345.153 233.122 342.318 235.615L298.764 224.906C294.341 223.832 289.702 225.206 286.499 228.545C283.278 231.896 281.973 236.727 283.008 241.339L293.265 286.771C290.887 289.716 288.532 292.692 286.223 295.708L241.499 294.083C236.986 293.948 232.678 296.204 230.156 300.141C227.629 304.06 227.246 309.078 229.127 313.395L247.655 355.783C245.856 359.186 244.069 362.617 242.346 366.102L198.283 373.581C193.804 374.335 190.031 377.457 188.289 381.828C186.561 386.207 187.122 391.199 189.763 395.039L215.829 432.793C215.628 433.46 215.442 434.132 215.242 434.801L141.546 513.086C141.546 513.086 130.25 521.937 146.693 542.74C161.193 561.091 235.644 633.836 274.964 671.945C291.57 691.293 302.948 703.274 304.136 702.238C306.012 700.593 296.164 665.391 263.454 624.089C238.238 587.033 205.513 530.04 213.187 523.471C213.187 523.471 221.916 512.39 239.429 504.414C240.07 504.926 238.767 503.907 239.429 504.414C239.429 504.414 609.024 674.905 951.858 507.298C991.022 500.273 1014.73 521.253 1014.73 521.253C1022.91 525.993 1001.73 584.597 984.324 623.39C960.645 667.44 957.173 701.812 959.18 703.004C960.448 703.761 969.063 690.651 981.352 669.787C1011.68 627.534 1069 546.985 1079.49 527.419C1091.38 505.237 1079.49 499.02 1079.49 499.02Z" fill="#F74C00"/>
<path d="M917.896 477.145C917.896 477.145 971.075 474.679 1040.93 403.683L1050.83 381.704C1050.83 381.704 942.409 273.856 1110.94 199.413C1110.94 199.413 1096.19 223.525 1100.52 316.685C1100.52 316.685 1151.33 299.036 1166.23 216.745C1166.23 216.745 1240.35 314.469 1085.73 406.122C1085.73 406.122 1013.19 522.411 910.925 511.272L917.896 477.145Z" fill="#F74C00"/>
<path d="M676.997 410.169C676.997 410.169 713.932 369.726 750.868 410.169C750.868 410.169 779.89 464.096 750.868 491.056C750.868 491.056 703.381 528.804 676.997 491.056C676.997 491.056 645.339 461.397 676.997 410.169Z" fill="black"/>
<path d="M719.761 425.173C719.761 440.919 710.479 453.687 699.029 453.687C687.581 453.687 678.299 440.919 678.299 425.173C678.299 409.423 687.581 396.655 699.029 396.655C710.479 396.655 719.761 409.423 719.761 425.173Z" fill="white"/>
<path d="M512.148 399.127C512.148 399.127 575.503 371.075 592.796 433.689C592.796 433.689 610.91 506.669 540.766 510.788C540.766 510.788 451.322 493.56 512.148 399.127Z" fill="black"/>
<path d="M543.968 426.206C543.968 442.445 534.396 455.615 522.587 455.615C510.783 455.615 501.208 442.445 501.208 426.206C501.208 409.962 510.783 396.795 522.587 396.795C534.396 396.795 543.968 409.962 543.968 426.206Z" fill="white"/>
<path d="M593.317 536.303L674.113 529.819C674.113 529.819 671.375 542.825 660.834 552.588C660.834 552.588 633.044 583.058 601.161 550.055C601.161 550.055 595.944 544.426 593.317 536.303Z" fill="black"/>
<path d="M269.796 461.519C269.129 461.519 268.475 461.568 267.823 461.62C241.589 455.649 167.85 436.435 148.359 405.257C148.359 405.257 247.586 292.385 92.499 220.238L110.556 345.116C110.556 345.116 62.747 313.167 52.43 243.77C52.43 243.77 -63.993 328.264 103.814 409.244C103.814 409.244 119.034 466.431 265.163 512.059L265.27 511.624C266.741 511.896 268.247 512.059 269.796 512.059C283.604 512.059 294.799 500.747 294.799 486.788C294.799 472.832 283.604 461.519 269.796 461.519Z" fill="#F74C00"/>
</svg>
