<svg width="508" height="492" viewBox="0 0 508 492" fill="none" xmlns="http://www.w3.org/2000/svg">
<path fill-rule="evenodd" clip-rule="evenodd" d="M151.181 216.625C152.968 215.792 155.032 215.792 156.819 216.625L236.819 253.959C239.167 255.054 240.667 257.41 240.667 260V352C240.667 354.591 239.167 356.945 236.819 358.041L156.819 395.375C155.032 396.208 152.968 396.208 151.181 395.375L71.1807 358.041C68.8335 356.945 67.3333 354.591 67.3333 352V260C67.3333 257.41 68.8335 255.054 71.1807 253.959L151.181 216.625ZM80.6666 270.077L147.333 298.41V378.865L80.6666 347.755V270.077ZM160.667 378.865L227.333 347.755V270.077L160.667 298.41V378.865ZM154 286.756L217.625 259.715L154 230.023L90.3745 259.715L154 286.756Z" fill="#9FEE98"/>
<path fill-rule="evenodd" clip-rule="evenodd" d="M351.181 216.625C352.968 215.792 355.032 215.792 356.819 216.625L436.819 253.959C439.167 255.054 440.667 257.41 440.667 260V352C440.667 354.591 439.167 356.945 436.819 358.041L356.819 395.375C355.032 396.208 352.968 396.208 351.181 395.375L271.181 358.041C268.834 356.945 267.333 354.591 267.333 352V260C267.333 257.41 268.834 255.054 271.181 253.959L351.181 216.625ZM280.667 270.077L347.333 298.41V378.865L280.667 347.755V270.077ZM360.667 378.865L427.333 347.755V270.077L360.667 298.41V378.865ZM354 286.756L417.625 259.715L354 230.023L290.374 259.715L354 286.756Z" fill="#9FEE98"/>
<path fill-rule="evenodd" clip-rule="evenodd" d="M251.181 51.6254C252.968 50.7915 255.032 50.7915 256.819 51.6254L336.819 88.9588C339.167 90.0541 340.667 92.4099 340.667 95V187C340.667 189.591 339.167 191.945 336.819 193.041L256.819 230.375C255.032 231.208 252.968 231.208 251.181 230.375L171.181 193.041C168.834 191.945 167.333 189.591 167.333 187V95C167.333 92.4099 168.834 90.0541 171.181 88.9588L251.181 51.6254ZM180.667 105.077L247.333 133.41V213.865L180.667 182.755V105.077ZM260.667 213.865L327.333 182.755V105.077L260.667 133.41V213.865ZM254 121.756L317.625 94.7155L254 65.0235L190.374 94.7155L254 121.756Z" fill="#9FEE98"/>
<path d="M100.5 245L100.5 141L171 109.5" stroke="#9FEE98" stroke-width="8"/>
<path d="M407.253 245.5L407.253 140.545L335.5 107.5" stroke="#9FEE98" stroke-width="8"/>
<path d="M331.761 381.679L253.5 418.5L174.5 380.5" stroke="#9FEE98" stroke-width="8"/>
</svg>
